<svg width="347" height="312" viewBox="0 0 347 312" fill="none" xmlns="http://www.w3.org/2000/svg">
<path fill-rule="evenodd" clip-rule="evenodd" d="M144.829 209.641L147.302 198.808L138.07 210.874L139.566 223.598L130.144 219.184L122.297 208.226L125.258 223.294L135.161 232.844L129.548 234.118L118.898 234.861L130.203 240.344L140.331 240.046L154.169 254.044L151.683 235.674L170.051 228.601L150.147 224.321L145.548 217.121L144.829 209.641ZM199.517 209.641L197.044 198.808L206.276 210.874L204.78 223.598L214.202 219.184L222.049 208.226L219.088 223.294L209.185 232.844L214.798 234.118L225.448 234.861L214.142 240.344L204.014 240.046L190.177 254.044L192.663 235.674L174.295 228.601L194.199 224.321L198.798 217.121L199.517 209.641Z" fill="#6FDCFF"/>
<path fill-rule="evenodd" clip-rule="evenodd" d="M196.382 190.764H171.987V190.782H147.796L149.877 200.064V210.884V220.61L147.796 230.75H172.191V230.732H196.382L194.301 220.592V210.866V200.047L196.382 190.764Z" fill="#6FDCFF"/>
<path fill-rule="evenodd" clip-rule="evenodd" d="M223.489 137.16L226.968 121.37L231.616 142.984L221.739 158.795L236.879 158.844L254.015 149.303L240.754 167.289L221.788 173.699L228.381 178.865L241.933 186.462L223.649 186.648L210.509 179.961L183.602 189.779L198.289 167.154L178.518 146.43L207.367 153.171L217.894 146.556L223.489 137.16ZM120.833 137.182L117.354 121.391L112.706 143.006L122.583 158.817L107.443 158.865L90.3066 149.324L103.568 167.31L122.534 173.72L115.941 178.886L102.389 186.483L120.672 186.67L133.813 179.983L160.72 189.8L146.032 167.175L165.804 146.451L136.955 153.192L126.428 146.577L120.833 137.182Z" fill="#6FDCFF"/>
<path fill-rule="evenodd" clip-rule="evenodd" d="M172.148 131.417L171.988 131.388V131.446L138.72 137.476L140.227 146.301L138.72 155.592L134.953 163.303L147.796 190.785L159.133 194.229L172.012 196.095L172.191 196.059L185.213 194.445L196.382 190.764L209.225 163.281L205.458 155.571L203.952 146.28L205.458 137.454L172.191 131.425V131.409L172.148 131.417Z" fill="#6FDCFF"/>
<path fill-rule="evenodd" clip-rule="evenodd" d="M171.868 223.682L172.191 223.725V223.732L196.876 227.517L202.648 232.723L201.688 240.931L192.573 254.106L182.63 259.664L171.987 262.392V262.387L171.976 262.391L160.926 259.342L151.605 254.127L142.49 240.952L141.231 231.718L147.302 227.538L171.868 223.682Z" fill="#6FD4FF"/>
<path fill-rule="evenodd" clip-rule="evenodd" d="M197.679 31.5676L209.594 58.193L213.193 91.6538L209.594 126.366L204.784 141.512L195.277 142.947L185.34 139.396L181.322 133.261L188.769 121.469L198.838 89.2897L197.679 31.5676ZM146.471 31.6567L134.556 61.0989L130.957 91.7429L134.556 126.455L139.366 141.601L148.873 143.036L158.81 139.485L162.828 133.35L155.381 121.558L145.312 89.3788L146.471 31.6567Z" fill="#D2FAFF"/>
<path fill-rule="evenodd" clip-rule="evenodd" d="M157.977 251.141L162.716 252.219L166.379 251.636L161.453 250.53L157.377 248.013L154.126 243.942L154.753 247.454L157.977 251.141ZM185.114 251.141L180.375 252.219L176.711 251.636L181.638 250.53L185.713 248.013L188.965 243.942L188.337 247.454L185.114 251.141Z" fill="#D2FAFF"/>
<path fill-rule="evenodd" clip-rule="evenodd" d="M144.172 156.19L150.545 165.76L141.573 163.011L133.877 164.189L144.172 167.526L154.761 171.747L160.987 177.243L166.379 185.978L163.193 166.496L160.153 161.097L154.761 153.834L156.673 161.097L158.388 167.526L151.427 159.969L144.172 156.19ZM198.919 156.19L192.546 165.76L201.517 163.011L209.213 164.189L198.919 167.526L188.33 171.747L182.104 177.243L176.711 185.978L179.898 166.496L182.937 161.097L188.33 153.834L186.418 161.097L184.702 167.526L191.663 159.969L198.919 156.19ZM145.782 173.231L154.368 176.04L162.387 181.553L166.011 186.035L157.662 180.045L149.105 175.69L140.191 172.789L145.782 173.231ZM188.71 176.04L197.296 173.231L202.887 172.789L193.973 175.69L185.416 180.045L177.067 186.035L180.69 181.553L188.71 176.04ZM190.518 190.17L194.529 188.168L198.067 184.88L199.521 182.417L195.856 185.963L191.971 188.722L187.805 190.792L190.518 190.17ZM149.797 188.168L153.809 190.17L156.522 190.792L152.356 188.722L148.47 185.963L144.806 182.417L146.26 184.88L149.797 188.168Z" fill="#D2FAFF"/>
<path fill-rule="evenodd" clip-rule="evenodd" d="M29.1312 104.193L34.4828 130.531L40.449 147.463L50.6414 165.857L42.9083 162.743L34.1254 151.942L19.9948 130.982L27.1627 158.386L36.1867 174.517L45.7242 188.203L58.3823 201.462L43.2199 191.322L56.9481 205.424L54.0375 205.291L42.4744 198.556L28.0087 185.132L41.6538 205.705L58.4317 216.213L72.9444 223.204L78.667 224.504L81.108 226.033L91.8498 231.208L93.9575 231.686L86.7771 233.058L74.886 227.944L77.2062 230.078L73.2478 228.781L50.0255 218.795L70.8772 237.967L87.1928 246.654L102.617 253.006L126.093 258.678L122.577 260.719L115.934 261.012L101.554 258.447L112.315 263.17L105.484 263.472L86.0557 260.005L108.661 269.929L128.456 269.691L144.444 267.721L158.626 262.576L152.088 261.503L155.268 260.349L142.894 258.319L135.473 252.804L116.519 235.378L104.291 226.939L102.491 226.227L90.7278 218.109L90.1703 216.629L83.6548 191.72L77.9346 178.008L69.4314 166.165L59.4208 143.12L63.3819 162.615L67.7978 175.146L75.3419 188.761L69.6181 186.456L64.6017 180.287L61.8726 169.854L54.1443 151.328L42.6561 135.328L29.1312 104.193ZM70.9376 204.204L73.0188 209.73L77.0035 212.395L79.3661 213.329L71.7023 205.301L70.9376 204.204ZM310.517 130.531L315.869 104.193L302.344 135.328L290.856 151.328L283.128 169.854L280.398 180.287L275.382 186.456L269.658 188.761L277.202 175.146L281.618 162.615L285.579 143.12L275.569 166.165L267.066 178.008L261.345 191.72L254.83 216.629L254.272 218.109L242.509 226.227L240.709 226.939L228.481 235.378L209.527 252.804L202.106 258.319L189.732 260.349L192.913 261.503L186.374 262.576L200.557 267.721L216.544 269.691L236.34 269.929L258.944 260.005L239.516 263.472L232.686 263.17L243.446 258.447L229.066 261.012L222.423 260.719L218.908 258.678L242.383 253.006L257.807 246.654L274.123 237.967L294.975 218.795L271.752 228.781L267.794 230.078L270.114 227.944L258.223 233.058L251.043 231.686L253.15 231.208L263.892 226.033L266.333 224.504L272.056 223.204L286.568 216.213L303.346 205.705L316.992 185.132L302.526 198.556L290.963 205.291L288.052 205.424L301.78 191.322L286.618 201.463L299.276 188.203L308.813 174.517L317.837 158.386L325.005 130.982L310.875 151.942L302.092 162.743L294.359 165.857L304.551 147.463L310.517 130.531ZM271.981 209.73L274.063 204.204L273.298 205.301L265.634 213.329L267.997 212.395L271.981 209.73Z" fill="#D2FAFF"/>
</svg>
